<svg width="202" height="48" viewBox="0 0 202 48" fill="none" xmlns="http://www.w3.org/2000/svg">
<path d="M23.9589 26C23.4508 19.8405 18.2907 15 12 15C5.37258 15 0 20.3726 0 27C0 33.6274 5.37258 39 12 39H30V26H23.9589Z" fill="#528BFF"/>
<circle cx="29" cy="24" r="15" fill="#7839EE"/>
<path d="M52.896 24.1999C52.896 22.2026 53.2787 20.4573 54.044 18.9639C54.828 17.4519 55.9387 16.2853 57.376 15.4639C58.832 14.6426 60.54 14.2319 62.5 14.2319C64.0307 14.2319 65.4027 14.5306 66.616 15.1279C67.8293 15.7253 68.8093 16.5653 69.556 17.6479C70.3027 18.7306 70.7507 19.9813 70.9 21.3999H66.7C66.4573 20.2799 65.944 19.4026 65.16 18.7679C64.3947 18.1146 63.4333 17.7879 62.276 17.7879C60.708 17.7879 59.4667 18.3759 58.552 19.5519C57.6373 20.7279 57.18 22.2773 57.18 24.1999C57.18 26.1039 57.6373 27.6533 58.552 28.8479C59.4667 30.0239 60.708 30.6119 62.276 30.6119C63.4333 30.6119 64.3947 30.2946 65.16 29.6599C65.944 29.0066 66.4573 28.1199 66.7 26.9999H70.9C70.7507 28.4186 70.3027 29.6693 69.556 30.7519C68.8093 31.8346 67.8293 32.6746 66.616 33.2719C65.4027 33.8693 64.0307 34.1679 62.5 34.1679C60.54 34.1679 58.832 33.7573 57.376 32.9359C55.9387 32.1146 54.828 30.9573 54.044 29.4639C53.2787 27.9519 52.896 26.1973 52.896 24.1999Z" fill="#181D27"/>
<path d="M71.9122 14.3999H75.8602V33.9999H71.9122V14.3999Z" fill="#181D27"/>
<path d="M84.5194 34.1679C83.0074 34.1679 81.6727 33.8693 80.5154 33.2719C79.3767 32.6559 78.49 31.7879 77.8554 30.6679C77.2394 29.5479 76.9314 28.2599 76.9314 26.8039C76.9314 25.3479 77.2394 24.0599 77.8554 22.9399C78.49 21.8199 79.3767 20.9613 80.5154 20.3639C81.6727 19.7479 83.0074 19.4399 84.5194 19.4399C86.0314 19.4399 87.3567 19.7479 88.4954 20.3639C89.6527 20.9613 90.5394 21.8199 91.1554 22.9399C91.79 24.0599 92.1074 25.3479 92.1074 26.8039C92.1074 28.2786 91.79 29.5759 91.1554 30.6959C90.5394 31.7973 89.6527 32.6559 88.4954 33.2719C87.3567 33.8693 86.0314 34.1679 84.5194 34.1679ZM84.5194 30.9479C85.6207 30.9479 86.4887 30.5653 87.1234 29.7999C87.7767 29.0346 88.1034 28.0359 88.1034 26.8039C88.1034 25.5719 87.7767 24.5733 87.1234 23.8079C86.4887 23.0426 85.6207 22.6599 84.5194 22.6599C83.4367 22.6599 82.5687 23.0426 81.9154 23.8079C81.2807 24.5733 80.9634 25.5719 80.9634 26.8039C80.9634 28.0359 81.2807 29.0346 81.9154 29.7999C82.5687 30.5653 83.4367 30.9479 84.5194 30.9479Z" fill="#181D27"/>
<path d="M106.712 19.6079V33.9999H103.212L102.848 32.2639C102.344 32.8613 101.756 33.3279 101.084 33.6639C100.412 33.9999 99.5911 34.1679 98.6204 34.1679C96.9404 34.1679 95.5684 33.6546 94.5044 32.6279C93.4404 31.5826 92.9084 29.8466 92.9084 27.4199V19.6079H96.8564V26.9439C96.8564 28.2506 97.0804 29.2399 97.5284 29.9119C97.9951 30.5653 98.7044 30.8919 99.6564 30.8919C100.646 30.8919 101.411 30.5279 101.952 29.7999C102.494 29.0533 102.764 28.0173 102.764 26.6919V19.6079H106.712Z" fill="#181D27"/>
<path d="M122.729 14.3999V33.9999H119.285L118.893 32.0119C117.792 33.4493 116.299 34.1679 114.413 34.1679C113.144 34.1679 112.005 33.8693 110.997 33.2719C109.989 32.6559 109.196 31.7879 108.617 30.6679C108.057 29.5479 107.777 28.2506 107.777 26.7759C107.777 25.3199 108.057 24.0413 108.617 22.9399C109.196 21.8199 109.989 20.9613 110.997 20.3639C112.024 19.7479 113.172 19.4399 114.441 19.4399C116.308 19.4399 117.755 20.0933 118.781 21.3999V14.3999H122.729ZM115.337 30.9479C116.401 30.9479 117.251 30.5746 117.885 29.8279C118.52 29.0626 118.837 28.0639 118.837 26.8319C118.837 25.5813 118.52 24.5733 117.885 23.8079C117.251 23.0426 116.401 22.6599 115.337 22.6599C114.273 22.6599 113.415 23.0426 112.761 23.8079C112.127 24.5733 111.809 25.5719 111.809 26.8039C111.809 28.0359 112.127 29.0346 112.761 29.7999C113.415 30.5653 114.273 30.9479 115.337 30.9479Z" fill="#181D27"/>
<path d="M123.242 14.3999L127.582 14.3719L131.194 28.7079L135.03 14.3999H138.81L142.534 28.7079L146.23 14.3999H150.486L145.054 33.9999H140.21L136.822 20.9799L133.518 33.9999H128.674L123.242 14.3999Z" fill="#181D27"/>
<path d="M163.66 30.6679V33.9999H161.644C159.833 33.9999 158.947 33.2159 158.984 31.6479C158.461 32.4693 157.817 33.0946 157.052 33.5239C156.286 33.9533 155.363 34.1679 154.28 34.1679C152.675 34.1679 151.377 33.8039 150.388 33.0759C149.417 32.3293 148.932 31.2839 148.932 29.9399C148.932 28.4093 149.492 27.2333 150.612 26.4119C151.75 25.5719 153.393 25.1519 155.54 25.1519H158.396V24.4519C158.396 23.7986 158.153 23.2853 157.668 22.9119C157.183 22.5199 156.529 22.3239 155.708 22.3239C154.98 22.3239 154.382 22.4826 153.916 22.7999C153.449 23.1173 153.169 23.5466 153.076 24.0879H149.268C149.399 22.6133 150.052 21.4746 151.228 20.6719C152.404 19.8506 153.963 19.4399 155.904 19.4399C157.939 19.4399 159.507 19.8879 160.608 20.7839C161.728 21.6799 162.288 22.9773 162.288 24.6759V29.7439C162.288 30.0986 162.363 30.3413 162.512 30.4719C162.661 30.6026 162.895 30.6679 163.212 30.6679H163.66ZM158.396 27.7839H155.512C154.69 27.7839 154.047 27.9519 153.58 28.2879C153.132 28.6053 152.908 29.0626 152.908 29.6599C152.908 30.1639 153.094 30.5653 153.468 30.8639C153.86 31.1626 154.382 31.3119 155.036 31.3119C156.062 31.3119 156.874 31.0226 157.472 30.4439C158.069 29.8466 158.377 29.0533 158.396 28.0639V27.7839Z" fill="#181D27"/>
<path d="M164.991 22.9399H162.611V19.6079H164.991V15.5759H168.939V19.6079H172.215V22.9399H168.939V29.2399C168.939 29.7439 169.042 30.1079 169.247 30.3319C169.471 30.5559 169.835 30.6679 170.339 30.6679H172.383V33.9999H169.107C166.363 33.9999 164.991 32.6279 164.991 29.8839V22.9399Z" fill="#181D27"/>
<path d="M186.541 28.5399C186.28 30.2946 185.533 31.6759 184.301 32.6839C183.088 33.6733 181.51 34.1679 179.569 34.1679C178.076 34.1679 176.769 33.8693 175.649 33.2719C174.529 32.6559 173.661 31.7879 173.045 30.6679C172.448 29.5479 172.149 28.2599 172.149 26.8039C172.149 25.3293 172.448 24.0413 173.045 22.9399C173.661 21.8199 174.529 20.9613 175.649 20.3639C176.788 19.7479 178.104 19.4399 179.597 19.4399C181.52 19.4399 183.088 19.9346 184.301 20.9239C185.514 21.8946 186.261 23.2479 186.541 24.9839H182.453C182.285 24.2746 181.949 23.7146 181.445 23.3039C180.941 22.8746 180.316 22.6599 179.569 22.6599C178.542 22.6599 177.721 23.0426 177.105 23.8079C176.489 24.5733 176.181 25.5719 176.181 26.8039C176.181 28.0359 176.489 29.0346 177.105 29.7999C177.721 30.5653 178.542 30.9479 179.569 30.9479C180.334 30.9479 180.969 30.7333 181.473 30.3039C181.996 29.8746 182.332 29.2866 182.481 28.5399H186.541Z" fill="#181D27"/>
<path d="M195.762 19.4399C197.46 19.4399 198.851 19.9626 199.934 21.0079C201.035 22.0533 201.586 23.7799 201.586 26.1879V33.9999H197.638V26.3559C197.638 25.1613 197.395 24.2559 196.91 23.6399C196.424 23.0053 195.696 22.6879 194.726 22.6879C193.718 22.6879 192.924 23.0333 192.346 23.7239C191.786 24.4146 191.506 25.3759 191.506 26.6079V33.9999H187.558V14.3999H191.506V21.3719C192.57 20.0839 193.988 19.4399 195.762 19.4399Z" fill="#181D27"/>
</svg>
