<svg width="150" height="48" viewBox="0 0 150 48" fill="none" xmlns="http://www.w3.org/2000/svg">
<path d="M32.4951 4.65991C35.4556 10.4644 37.125 17.0372 37.125 23.9999C37.125 30.9627 35.4555 37.5355 32.4951 43.34C39.3483 39.6131 44 32.3498 44 23.9999C44 15.6501 39.3484 8.38678 32.4951 4.65991Z" fill="#0BA5EC"/>
<path d="M22.6024 4.1986C21.6073 2.78895 19.9122 2.02977 18.2121 2.3248C7.86686 4.12011 0 13.1413 0 23.9999C0 34.8585 7.86682 43.8797 18.212 45.675C19.9121 45.9701 21.6073 45.2109 22.6023 43.8013C26.5538 38.2035 28.875 31.3728 28.875 23.9999C28.875 16.627 26.5538 9.79629 22.6024 4.1986Z" fill="#0086C9"/>
<path d="M64.584 34.2452C68.448 34.2452 71.472 32.8732 73.264 30.5772V23.3812H65.844L65.704 27.0212L68.672 26.8812V29.1772C67.58 30.0452 66.236 30.4652 64.948 30.4652C61.728 30.4652 59.684 28.0292 59.684 24.1372C59.684 20.2452 61.588 17.8092 64.64 17.8092C66.656 17.8092 68.056 19.0132 68.252 20.9452H73.264C72.928 16.6892 69.596 14.0292 64.64 14.0292C58.676 14.0292 54.924 17.9212 54.924 24.1372C54.924 30.3532 58.648 34.2452 64.584 34.2452Z" fill="#181D27"/>
<path d="M85.5372 33.9092H89.7652V23.7452C89.7652 20.0772 87.0492 18.0052 82.7932 18.0052C78.4252 18.0052 75.6252 20.0212 75.3452 23.2972H79.6012C79.7412 21.9252 80.8612 21.0852 82.5972 21.0852C84.3612 21.0852 85.3972 21.9812 85.3972 23.4652V24.5292H82.5412C78.3412 24.5292 75.7932 26.3492 75.7932 29.5692C75.7932 32.3132 77.7812 34.2452 80.8052 34.2452C82.7372 34.2452 84.3892 33.7132 85.4532 32.3692L85.5372 33.9092ZM80.0772 29.2892C80.0772 28.0852 81.0012 27.5812 82.4572 27.5812L85.3972 27.5532V28.7572C84.5572 30.0452 83.4092 30.8012 81.8972 30.8012C80.6652 30.8012 80.0772 30.1292 80.0772 29.2892Z" fill="#181D27"/>
<path d="M92.9769 33.9092H97.3449V13.1892H92.9769V33.9092Z" fill="#181D27"/>
<path d="M100.687 33.9092H105.055V18.3412H100.687V33.9092ZM100.519 16.2692H105.167V12.1812H100.519V16.2692Z" fill="#181D27"/>
<path d="M108.399 33.9092H112.767V13.1892H108.399V33.9092Z" fill="#181D27"/>
<path d="M123.473 34.2452C127.841 34.2452 130.809 32.0332 131.173 28.4772H126.805C126.525 29.7932 125.265 30.7452 123.473 30.7452C121.177 30.7452 119.917 29.0372 119.777 26.7972H131.229C131.649 21.3932 128.737 18.0052 123.697 18.0052C118.601 18.0052 115.381 21.1412 115.381 26.1252C115.381 31.1092 118.489 34.2452 123.473 34.2452ZM120.113 23.8012C120.645 22.2052 121.793 21.3932 123.669 21.3932C125.405 21.3932 126.665 22.3732 126.777 23.8012H120.113Z" fill="#181D27"/>
<path d="M141.108 34.2452C146.092 34.2452 149.088 31.1932 149.088 26.1252C149.088 21.0572 146.092 18.0052 141.108 18.0052C136.124 18.0052 133.1 21.0572 133.1 26.1252C133.1 31.1932 136.124 34.2452 141.108 34.2452ZM137.468 26.1252C137.468 23.2412 138.84 21.5332 141.108 21.5332C143.348 21.5332 144.72 23.2412 144.72 26.1252C144.72 29.0092 143.348 30.7172 141.108 30.7172C138.84 30.7172 137.468 29.0092 137.468 26.1252Z" fill="#181D27"/>
</svg>
